<svg width="7" height="8" viewBox="0 0 7 8" fill="none" xmlns="http://www.w3.org/2000/svg">
<g id="&#240;&#159;&#166;&#134; icon &#34;share android&#34;">
<path id="Vector" d="M5.49961 7.00019C5.99667 7.00019 6.3996 6.59726 6.3996 6.10019C6.3996 5.60312 5.99667 5.2002 5.49961 5.2002C5.00254 5.2002 4.59961 5.60312 4.59961 6.10019C4.59961 6.59726 5.00254 7.00019 5.49961 7.00019Z" stroke="#078A34" stroke-linecap="round" stroke-linejoin="round"/>
<path id="Vector_2" d="M5.49961 2.79999C5.99667 2.79999 6.3996 2.39705 6.3996 1.9C6.3996 1.40294 5.99667 1 5.49961 1C5.00254 1 4.59961 1.40294 4.59961 1.9C4.59961 2.39705 5.00254 2.79999 5.49961 2.79999Z" stroke="#078A34" stroke-linecap="round" stroke-linejoin="round"/>
<path id="Vector_3" d="M1.9 4.90009C2.39705 4.90009 2.79999 4.49716 2.79999 4.00009C2.79999 3.50303 2.39705 3.1001 1.9 3.1001C1.40294 3.1001 1 3.50303 1 4.00009C1 4.49716 1.40294 4.90009 1.9 4.90009Z" stroke="#078A34" stroke-linecap="round" stroke-linejoin="round"/>
<path id="Vector_4" d="M4.75038 2.3501L2.65039 3.55009" stroke="#078A34"/>
<path id="Vector_5" d="M2.65039 4.44971L4.75038 5.6497" stroke="#078A34"/>
</g>
</svg>
